<mxfile host="app.diagrams.net" modified="2024-05-03T15:31:40.117Z" agent="Mozilla/5.0 (Windows NT 10.0; Win64; x64) AppleWebKit/537.36 (KHTML, like Gecko) Chrome/124.0.0.0 Safari/537.36" etag="GIbXDn6dx7rzc6ND9iLF" version="24.3.1" type="device">
  <diagram id="R2lEEEUBdFMjLlhIrx00" name="Page-1">
    <mxGraphModel dx="3609" dy="2299" grid="1" gridSize="10" guides="1" tooltips="1" connect="1" arrows="1" fold="1" page="1" pageScale="1" pageWidth="1169" pageHeight="827" math="0" shadow="0" extFonts="Permanent Marker^https://fonts.googleapis.com/css?family=Permanent+Marker">
      <root>
        <mxCell id="0" />
        <mxCell id="1" parent="0" />
        <mxCell id="ZNTETTCO-53_S99kWI7z-3" style="edgeStyle=none;curved=1;rounded=0;orthogonalLoop=1;jettySize=auto;html=1;fontSize=12;strokeColor=none;" edge="1" parent="1" source="ZNTETTCO-53_S99kWI7z-1">
          <mxGeometry relative="1" as="geometry">
            <mxPoint x="1052.1649217183658" y="108.0265515854253" as="targetPoint" />
          </mxGeometry>
        </mxCell>
        <mxCell id="ZNTETTCO-53_S99kWI7z-1" value="Perfil" style="rounded=1;whiteSpace=wrap;html=1;" vertex="1" parent="1">
          <mxGeometry x="940" y="160" width="120" height="60" as="geometry" />
        </mxCell>
        <mxCell id="ZNTETTCO-53_S99kWI7z-6" value="&lt;u&gt;cod_perfil&lt;/u&gt;" style="ellipse;whiteSpace=wrap;html=1;" vertex="1" parent="1">
          <mxGeometry x="910" y="50" width="100" height="60" as="geometry" />
        </mxCell>
        <mxCell id="ZNTETTCO-53_S99kWI7z-7" value="" style="endArrow=none;html=1;rounded=0;fontSize=12;startSize=8;endSize=8;curved=1;exitX=0.442;exitY=0.033;exitDx=0;exitDy=0;exitPerimeter=0;" edge="1" parent="1" target="ZNTETTCO-53_S99kWI7z-6" source="ZNTETTCO-53_S99kWI7z-1">
          <mxGeometry width="50" height="50" relative="1" as="geometry">
            <mxPoint x="1002" y="175.98000000000002" as="sourcePoint" />
            <mxPoint x="350" y="610" as="targetPoint" />
          </mxGeometry>
        </mxCell>
        <mxCell id="ZNTETTCO-53_S99kWI7z-8" value="txt_perfil" style="ellipse;whiteSpace=wrap;html=1;" vertex="1" parent="1">
          <mxGeometry x="1030" y="60" width="100" height="60" as="geometry" />
        </mxCell>
        <mxCell id="ZNTETTCO-53_S99kWI7z-9" value="" style="endArrow=none;html=1;rounded=0;fontSize=12;startSize=8;endSize=8;curved=1;" edge="1" parent="1" source="ZNTETTCO-53_S99kWI7z-1" target="ZNTETTCO-53_S99kWI7z-8">
          <mxGeometry width="50" height="50" relative="1" as="geometry">
            <mxPoint x="1040" y="170" as="sourcePoint" />
            <mxPoint x="1065" y="119" as="targetPoint" />
          </mxGeometry>
        </mxCell>
        <mxCell id="ZNTETTCO-53_S99kWI7z-10" value="Tener" style="rhombus;whiteSpace=wrap;html=1;" vertex="1" parent="1">
          <mxGeometry x="740" y="150" width="150" height="80" as="geometry" />
        </mxCell>
        <mxCell id="ZNTETTCO-53_S99kWI7z-11" value="" style="endArrow=none;html=1;rounded=0;fontSize=12;startSize=8;endSize=8;curved=1;exitX=0;exitY=0.5;exitDx=0;exitDy=0;entryX=1;entryY=0.5;entryDx=0;entryDy=0;" edge="1" parent="1" source="ZNTETTCO-53_S99kWI7z-1" target="ZNTETTCO-53_S99kWI7z-10">
          <mxGeometry width="50" height="50" relative="1" as="geometry">
            <mxPoint x="1003" y="172" as="sourcePoint" />
            <mxPoint x="982" y="119" as="targetPoint" />
          </mxGeometry>
        </mxCell>
        <mxCell id="ZNTETTCO-53_S99kWI7z-12" value="Usuario" style="rounded=1;whiteSpace=wrap;html=1;" vertex="1" parent="1">
          <mxGeometry x="540" y="160" width="120" height="60" as="geometry" />
        </mxCell>
        <mxCell id="ZNTETTCO-53_S99kWI7z-13" value="" style="endArrow=none;html=1;rounded=0;fontSize=12;startSize=8;endSize=8;curved=1;exitX=0;exitY=0.5;exitDx=0;exitDy=0;entryX=1;entryY=0.5;entryDx=0;entryDy=0;" edge="1" parent="1" source="ZNTETTCO-53_S99kWI7z-10" target="ZNTETTCO-53_S99kWI7z-12">
          <mxGeometry width="50" height="50" relative="1" as="geometry">
            <mxPoint x="950" y="200" as="sourcePoint" />
            <mxPoint x="900" y="200" as="targetPoint" />
          </mxGeometry>
        </mxCell>
        <mxCell id="ZNTETTCO-53_S99kWI7z-15" value="&lt;font style=&quot;font-size: 13px;&quot;&gt;(0,N)&lt;/font&gt;" style="text;strokeColor=none;fillColor=none;html=1;align=center;verticalAlign=middle;whiteSpace=wrap;rounded=0;fontSize=16;" vertex="1" parent="1">
          <mxGeometry x="670" y="160" width="60" height="30" as="geometry" />
        </mxCell>
        <mxCell id="ZNTETTCO-53_S99kWI7z-16" value="&lt;font style=&quot;font-size: 13px;&quot;&gt;(1,1)&lt;/font&gt;" style="text;strokeColor=none;fillColor=none;html=1;align=center;verticalAlign=middle;whiteSpace=wrap;rounded=0;fontSize=16;" vertex="1" parent="1">
          <mxGeometry x="880" y="160" width="60" height="30" as="geometry" />
        </mxCell>
        <mxCell id="ZNTETTCO-53_S99kWI7z-17" value="&lt;font size=&quot;1&quot; style=&quot;&quot;&gt;&lt;b style=&quot;font-size: 14px;&quot;&gt;1:N&lt;/b&gt;&lt;/font&gt;" style="text;strokeColor=none;fillColor=none;html=1;align=center;verticalAlign=middle;whiteSpace=wrap;rounded=0;fontSize=16;" vertex="1" parent="1">
          <mxGeometry x="785" y="110" width="60" height="30" as="geometry" />
        </mxCell>
        <mxCell id="ZNTETTCO-53_S99kWI7z-18" value="&lt;u&gt;txt_nombre_usuario&lt;/u&gt;" style="ellipse;whiteSpace=wrap;html=1;" vertex="1" parent="1">
          <mxGeometry x="610" y="40" width="130" height="60" as="geometry" />
        </mxCell>
        <mxCell id="ZNTETTCO-53_S99kWI7z-19" value="" style="endArrow=none;html=1;rounded=0;fontSize=12;startSize=8;endSize=8;curved=1;" edge="1" parent="1" target="ZNTETTCO-53_S99kWI7z-18" source="ZNTETTCO-53_S99kWI7z-12">
          <mxGeometry width="50" height="50" relative="1" as="geometry">
            <mxPoint x="619.2857142857142" y="180" as="sourcePoint" />
            <mxPoint x="80" y="600" as="targetPoint" />
          </mxGeometry>
        </mxCell>
        <mxCell id="ZNTETTCO-53_S99kWI7z-20" value="txt_descripcion" style="ellipse;whiteSpace=wrap;html=1;" vertex="1" parent="1">
          <mxGeometry x="500" y="50" width="100" height="60" as="geometry" />
        </mxCell>
        <mxCell id="ZNTETTCO-53_S99kWI7z-21" value="" style="endArrow=none;html=1;rounded=0;fontSize=12;startSize=8;endSize=8;curved=1;exitX=0.5;exitY=0;exitDx=0;exitDy=0;" edge="1" parent="1" target="ZNTETTCO-53_S99kWI7z-20" source="ZNTETTCO-53_S99kWI7z-12">
          <mxGeometry width="50" height="50" relative="1" as="geometry">
            <mxPoint x="583" y="162" as="sourcePoint" />
            <mxPoint x="-60" y="610" as="targetPoint" />
          </mxGeometry>
        </mxCell>
        <mxCell id="ZNTETTCO-53_S99kWI7z-22" value="&lt;u&gt;txt_dni&lt;/u&gt;" style="ellipse;whiteSpace=wrap;html=1;" vertex="1" parent="1">
          <mxGeometry x="390" y="50" width="100" height="60" as="geometry" />
        </mxCell>
        <mxCell id="ZNTETTCO-53_S99kWI7z-23" value="" style="endArrow=none;html=1;rounded=0;fontSize=12;startSize=8;endSize=8;curved=1;exitX=0;exitY=0;exitDx=0;exitDy=0;" edge="1" parent="1" target="ZNTETTCO-53_S99kWI7z-22" source="ZNTETTCO-53_S99kWI7z-12">
          <mxGeometry width="50" height="50" relative="1" as="geometry">
            <mxPoint x="540" y="165" as="sourcePoint" />
            <mxPoint x="-170" y="610" as="targetPoint" />
          </mxGeometry>
        </mxCell>
        <mxCell id="ZNTETTCO-53_S99kWI7z-24" value="&lt;u&gt;num_telefono&lt;/u&gt;" style="ellipse;whiteSpace=wrap;html=1;" vertex="1" parent="1">
          <mxGeometry x="750" y="240" width="100" height="60" as="geometry" />
        </mxCell>
        <mxCell id="ZNTETTCO-53_S99kWI7z-25" value="" style="endArrow=none;html=1;rounded=0;fontSize=12;startSize=8;endSize=8;curved=1;exitX=1;exitY=0.75;exitDx=0;exitDy=0;" edge="1" parent="1" target="ZNTETTCO-53_S99kWI7z-24" source="ZNTETTCO-53_S99kWI7z-12">
          <mxGeometry width="50" height="50" relative="1" as="geometry">
            <mxPoint x="700" y="330" as="sourcePoint" />
            <mxPoint x="-10" y="780" as="targetPoint" />
          </mxGeometry>
        </mxCell>
        <mxCell id="ZNTETTCO-53_S99kWI7z-26" value="&lt;u&gt;txt_email&lt;/u&gt;" style="ellipse;whiteSpace=wrap;html=1;" vertex="1" parent="1">
          <mxGeometry x="650" y="270" width="100" height="60" as="geometry" />
        </mxCell>
        <mxCell id="ZNTETTCO-53_S99kWI7z-27" value="" style="endArrow=none;html=1;rounded=0;fontSize=12;startSize=8;endSize=8;curved=1;exitX=0.5;exitY=1;exitDx=0;exitDy=0;" edge="1" parent="1" target="ZNTETTCO-53_S99kWI7z-26" source="ZNTETTCO-53_S99kWI7z-12">
          <mxGeometry width="50" height="50" relative="1" as="geometry">
            <mxPoint x="550" y="230" as="sourcePoint" />
            <mxPoint x="-120" y="790" as="targetPoint" />
          </mxGeometry>
        </mxCell>
        <mxCell id="ZNTETTCO-53_S99kWI7z-30" value="txt_password" style="ellipse;whiteSpace=wrap;html=1;" vertex="1" parent="1">
          <mxGeometry x="470" y="260" width="100" height="60" as="geometry" />
        </mxCell>
        <mxCell id="ZNTETTCO-53_S99kWI7z-31" value="" style="endArrow=none;html=1;rounded=0;fontSize=12;startSize=8;endSize=8;curved=1;" edge="1" parent="1" target="ZNTETTCO-53_S99kWI7z-30" source="ZNTETTCO-53_S99kWI7z-12">
          <mxGeometry width="50" height="50" relative="1" as="geometry">
            <mxPoint x="490" y="220" as="sourcePoint" />
            <mxPoint x="-230" y="790" as="targetPoint" />
          </mxGeometry>
        </mxCell>
        <mxCell id="ZNTETTCO-53_S99kWI7z-32" value="datos_imagen_usuario" style="ellipse;whiteSpace=wrap;html=1;" vertex="1" parent="1">
          <mxGeometry x="240" y="40" width="130" height="60" as="geometry" />
        </mxCell>
        <mxCell id="ZNTETTCO-53_S99kWI7z-33" value="" style="endArrow=none;html=1;rounded=0;fontSize=12;startSize=8;endSize=8;curved=1;" edge="1" parent="1" target="ZNTETTCO-53_S99kWI7z-32" source="ZNTETTCO-53_S99kWI7z-12">
          <mxGeometry width="50" height="50" relative="1" as="geometry">
            <mxPoint x="319" y="350" as="sourcePoint" />
            <mxPoint x="-220" y="790" as="targetPoint" />
          </mxGeometry>
        </mxCell>
        <mxCell id="ZNTETTCO-53_S99kWI7z-36" value="Poseer" style="rhombus;whiteSpace=wrap;html=1;" vertex="1" parent="1">
          <mxGeometry x="516" y="360" width="150" height="80" as="geometry" />
        </mxCell>
        <mxCell id="ZNTETTCO-53_S99kWI7z-37" value="" style="endArrow=none;html=1;rounded=0;fontSize=12;startSize=8;endSize=8;curved=1;exitX=0.5;exitY=0;exitDx=0;exitDy=0;entryX=0.425;entryY=0.983;entryDx=0;entryDy=0;entryPerimeter=0;" edge="1" parent="1" source="ZNTETTCO-53_S99kWI7z-36" target="ZNTETTCO-53_S99kWI7z-12">
          <mxGeometry width="50" height="50" relative="1" as="geometry">
            <mxPoint x="650" y="269" as="sourcePoint" />
            <mxPoint x="570" y="269" as="targetPoint" />
          </mxGeometry>
        </mxCell>
        <mxCell id="ZNTETTCO-53_S99kWI7z-38" value="Alojamiento" style="rounded=1;whiteSpace=wrap;html=1;" vertex="1" parent="1">
          <mxGeometry x="531" y="510" width="120" height="60" as="geometry" />
        </mxCell>
        <mxCell id="ZNTETTCO-53_S99kWI7z-39" value="" style="endArrow=none;html=1;rounded=0;fontSize=12;startSize=8;endSize=8;curved=1;exitX=0.5;exitY=0;exitDx=0;exitDy=0;" edge="1" parent="1" source="ZNTETTCO-53_S99kWI7z-38" target="ZNTETTCO-53_S99kWI7z-36">
          <mxGeometry width="50" height="50" relative="1" as="geometry">
            <mxPoint x="601" y="370" as="sourcePoint" />
            <mxPoint x="601" y="229" as="targetPoint" />
          </mxGeometry>
        </mxCell>
        <mxCell id="ZNTETTCO-53_S99kWI7z-40" value="&lt;font style=&quot;font-size: 13px;&quot;&gt;(1,1)&lt;/font&gt;" style="text;strokeColor=none;fillColor=none;html=1;align=center;verticalAlign=middle;whiteSpace=wrap;rounded=0;fontSize=16;" vertex="1" parent="1">
          <mxGeometry x="585" y="300" width="60" height="30" as="geometry" />
        </mxCell>
        <mxCell id="ZNTETTCO-53_S99kWI7z-41" value="&lt;font style=&quot;font-size: 13px;&quot;&gt;(0,N)&lt;/font&gt;" style="text;strokeColor=none;fillColor=none;html=1;align=center;verticalAlign=middle;whiteSpace=wrap;rounded=0;fontSize=16;" vertex="1" parent="1">
          <mxGeometry x="591" y="460" width="60" height="30" as="geometry" />
        </mxCell>
        <mxCell id="ZNTETTCO-53_S99kWI7z-42" value="&lt;font style=&quot;font-size: 14px;&quot;&gt;&lt;b&gt;1:N&lt;/b&gt;&lt;/font&gt;" style="text;strokeColor=none;fillColor=none;html=1;align=center;verticalAlign=middle;whiteSpace=wrap;rounded=0;fontSize=16;" vertex="1" parent="1">
          <mxGeometry x="660" y="385" width="60" height="30" as="geometry" />
        </mxCell>
        <mxCell id="ZNTETTCO-53_S99kWI7z-43" value="txt_nombre" style="ellipse;whiteSpace=wrap;html=1;" vertex="1" parent="1">
          <mxGeometry x="650" y="430" width="130" height="60" as="geometry" />
        </mxCell>
        <mxCell id="ZNTETTCO-53_S99kWI7z-44" value="" style="endArrow=none;html=1;rounded=0;fontSize=12;startSize=8;endSize=8;curved=1;exitX=1;exitY=0.25;exitDx=0;exitDy=0;" edge="1" parent="1" target="ZNTETTCO-53_S99kWI7z-43" source="ZNTETTCO-53_S99kWI7z-38">
          <mxGeometry width="50" height="50" relative="1" as="geometry">
            <mxPoint x="679" y="550" as="sourcePoint" />
            <mxPoint x="140" y="990" as="targetPoint" />
          </mxGeometry>
        </mxCell>
        <mxCell id="ZNTETTCO-53_S99kWI7z-45" value="txt_descripcion" style="ellipse;whiteSpace=wrap;html=1;" vertex="1" parent="1">
          <mxGeometry x="430" y="440" width="130" height="60" as="geometry" />
        </mxCell>
        <mxCell id="ZNTETTCO-53_S99kWI7z-46" value="" style="endArrow=none;html=1;rounded=0;fontSize=12;startSize=8;endSize=8;curved=1;exitX=0.25;exitY=0;exitDx=0;exitDy=0;" edge="1" parent="1" target="ZNTETTCO-53_S99kWI7z-45" source="ZNTETTCO-53_S99kWI7z-38">
          <mxGeometry width="50" height="50" relative="1" as="geometry">
            <mxPoint x="382" y="522.5" as="sourcePoint" />
            <mxPoint x="-129" y="987.5" as="targetPoint" />
          </mxGeometry>
        </mxCell>
        <mxCell id="ZNTETTCO-53_S99kWI7z-47" value="num_plaza_min" style="ellipse;whiteSpace=wrap;html=1;" vertex="1" parent="1">
          <mxGeometry x="666" y="600" width="130" height="60" as="geometry" />
        </mxCell>
        <mxCell id="ZNTETTCO-53_S99kWI7z-48" value="" style="endArrow=none;html=1;rounded=0;fontSize=12;startSize=8;endSize=8;curved=1;" edge="1" parent="1" target="ZNTETTCO-53_S99kWI7z-47" source="ZNTETTCO-53_S99kWI7z-38">
          <mxGeometry width="50" height="50" relative="1" as="geometry">
            <mxPoint x="830" y="617.5" as="sourcePoint" />
            <mxPoint x="170" y="1080" as="targetPoint" />
          </mxGeometry>
        </mxCell>
        <mxCell id="ZNTETTCO-53_S99kWI7z-49" value="num_plaza_max" style="ellipse;whiteSpace=wrap;html=1;" vertex="1" parent="1">
          <mxGeometry x="340" y="600" width="130" height="60" as="geometry" />
        </mxCell>
        <mxCell id="ZNTETTCO-53_S99kWI7z-50" value="" style="endArrow=none;html=1;rounded=0;fontSize=12;startSize=8;endSize=8;curved=1;exitX=0.083;exitY=0.983;exitDx=0;exitDy=0;exitPerimeter=0;" edge="1" parent="1" target="ZNTETTCO-53_S99kWI7z-49" source="ZNTETTCO-53_S99kWI7z-38">
          <mxGeometry width="50" height="50" relative="1" as="geometry">
            <mxPoint x="367" y="565" as="sourcePoint" />
            <mxPoint x="-114" y="1105" as="targetPoint" />
          </mxGeometry>
        </mxCell>
        <mxCell id="ZNTETTCO-53_S99kWI7z-52" value="num_precio_noche" style="ellipse;whiteSpace=wrap;html=1;" vertex="1" parent="1">
          <mxGeometry x="365" y="670" width="130" height="60" as="geometry" />
        </mxCell>
        <mxCell id="ZNTETTCO-53_S99kWI7z-53" value="" style="endArrow=none;html=1;rounded=0;fontSize=12;startSize=8;endSize=8;curved=1;exitX=0.25;exitY=1;exitDx=0;exitDy=0;" edge="1" parent="1" target="ZNTETTCO-53_S99kWI7z-52" source="ZNTETTCO-53_S99kWI7z-38">
          <mxGeometry width="50" height="50" relative="1" as="geometry">
            <mxPoint x="591" y="640" as="sourcePoint" />
            <mxPoint x="-64" y="1176" as="targetPoint" />
          </mxGeometry>
        </mxCell>
        <mxCell id="ZNTETTCO-53_S99kWI7z-54" value="Alquiler_alojamiento" style="rounded=1;whiteSpace=wrap;html=1;" vertex="1" parent="1">
          <mxGeometry x="70" y="160" width="120" height="60" as="geometry" />
        </mxCell>
        <mxCell id="ZNTETTCO-53_S99kWI7z-55" value="Realiza" style="rhombus;whiteSpace=wrap;html=1;" vertex="1" parent="1">
          <mxGeometry x="280" y="150" width="150" height="80" as="geometry" />
        </mxCell>
        <mxCell id="ZNTETTCO-53_S99kWI7z-56" value="" style="endArrow=none;html=1;rounded=0;fontSize=12;startSize=8;endSize=8;curved=1;exitX=1;exitY=0.5;exitDx=0;exitDy=0;entryX=0;entryY=0.5;entryDx=0;entryDy=0;" edge="1" parent="1" source="ZNTETTCO-53_S99kWI7z-55" target="ZNTETTCO-53_S99kWI7z-12">
          <mxGeometry width="50" height="50" relative="1" as="geometry">
            <mxPoint x="601" y="370" as="sourcePoint" />
            <mxPoint x="601" y="229" as="targetPoint" />
          </mxGeometry>
        </mxCell>
        <mxCell id="ZNTETTCO-53_S99kWI7z-58" value="" style="endArrow=none;html=1;rounded=0;fontSize=12;startSize=8;endSize=8;curved=1;exitX=1;exitY=0.5;exitDx=0;exitDy=0;entryX=0;entryY=0.5;entryDx=0;entryDy=0;" edge="1" parent="1" source="ZNTETTCO-53_S99kWI7z-54" target="ZNTETTCO-53_S99kWI7z-55">
          <mxGeometry width="50" height="50" relative="1" as="geometry">
            <mxPoint x="250" y="200" as="sourcePoint" />
            <mxPoint x="360" y="200" as="targetPoint" />
          </mxGeometry>
        </mxCell>
        <mxCell id="ZNTETTCO-53_S99kWI7z-59" value="&lt;font style=&quot;font-size: 13px;&quot;&gt;(1,1)&lt;/font&gt;" style="text;strokeColor=none;fillColor=none;html=1;align=center;verticalAlign=middle;whiteSpace=wrap;rounded=0;fontSize=16;" vertex="1" parent="1">
          <mxGeometry x="455" y="160" width="60" height="30" as="geometry" />
        </mxCell>
        <mxCell id="ZNTETTCO-53_S99kWI7z-60" value="&lt;font style=&quot;font-size: 13px;&quot;&gt;(0,N)&lt;/font&gt;" style="text;strokeColor=none;fillColor=none;html=1;align=center;verticalAlign=middle;whiteSpace=wrap;rounded=0;fontSize=16;" vertex="1" parent="1">
          <mxGeometry x="190" y="160" width="60" height="30" as="geometry" />
        </mxCell>
        <mxCell id="ZNTETTCO-53_S99kWI7z-61" value="&lt;font size=&quot;1&quot; style=&quot;&quot;&gt;&lt;b style=&quot;font-size: 14px;&quot;&gt;1:N&lt;/b&gt;&lt;/font&gt;" style="text;strokeColor=none;fillColor=none;html=1;align=center;verticalAlign=middle;whiteSpace=wrap;rounded=0;fontSize=16;" vertex="1" parent="1">
          <mxGeometry x="325" y="120" width="60" height="30" as="geometry" />
        </mxCell>
        <mxCell id="ZNTETTCO-53_S99kWI7z-62" value="fecha_inicio_alquiler" style="ellipse;whiteSpace=wrap;html=1;" vertex="1" parent="1">
          <mxGeometry x="90" y="60" width="130" height="60" as="geometry" />
        </mxCell>
        <mxCell id="ZNTETTCO-53_S99kWI7z-63" value="" style="endArrow=none;html=1;rounded=0;fontSize=12;startSize=8;endSize=8;curved=1;exitX=0.75;exitY=0;exitDx=0;exitDy=0;" edge="1" parent="1" target="ZNTETTCO-53_S99kWI7z-62" source="ZNTETTCO-53_S99kWI7z-54">
          <mxGeometry width="50" height="50" relative="1" as="geometry">
            <mxPoint x="111.8694195139833" y="199.01" as="sourcePoint" />
            <mxPoint x="-440" y="620" as="targetPoint" />
          </mxGeometry>
        </mxCell>
        <mxCell id="ZNTETTCO-53_S99kWI7z-64" value="fecha_fin_alquiler" style="ellipse;whiteSpace=wrap;html=1;" vertex="1" parent="1">
          <mxGeometry x="180" y="230" width="130" height="60" as="geometry" />
        </mxCell>
        <mxCell id="ZNTETTCO-53_S99kWI7z-65" value="" style="endArrow=none;html=1;rounded=0;fontSize=12;startSize=8;endSize=8;curved=1;exitX=0.75;exitY=1;exitDx=0;exitDy=0;" edge="1" parent="1" target="ZNTETTCO-53_S99kWI7z-64" source="ZNTETTCO-53_S99kWI7z-54">
          <mxGeometry width="50" height="50" relative="1" as="geometry">
            <mxPoint x="140" y="360" as="sourcePoint" />
            <mxPoint x="-460" y="820" as="targetPoint" />
          </mxGeometry>
        </mxCell>
        <mxCell id="ZNTETTCO-53_S99kWI7z-66" value="precio_total_alquiler" style="ellipse;whiteSpace=wrap;html=1;" vertex="1" parent="1">
          <mxGeometry x="-50" y="60" width="130" height="60" as="geometry" />
        </mxCell>
        <mxCell id="ZNTETTCO-53_S99kWI7z-67" value="" style="endArrow=none;html=1;rounded=0;fontSize=12;startSize=8;endSize=8;curved=1;exitX=0.25;exitY=0;exitDx=0;exitDy=0;" edge="1" parent="1" source="ZNTETTCO-53_S99kWI7z-54" target="ZNTETTCO-53_S99kWI7z-66">
          <mxGeometry width="50" height="50" relative="1" as="geometry">
            <mxPoint x="170" y="170" as="sourcePoint" />
            <mxPoint x="167" y="130" as="targetPoint" />
          </mxGeometry>
        </mxCell>
        <mxCell id="ZNTETTCO-53_S99kWI7z-68" value="num_plazas_reservadas" style="ellipse;whiteSpace=wrap;html=1;" vertex="1" parent="1">
          <mxGeometry x="-60" y="250" width="150" height="60" as="geometry" />
        </mxCell>
        <mxCell id="ZNTETTCO-53_S99kWI7z-69" value="" style="endArrow=none;html=1;rounded=0;fontSize=12;startSize=8;endSize=8;curved=1;exitX=0.183;exitY=0.967;exitDx=0;exitDy=0;exitPerimeter=0;" edge="1" parent="1" target="ZNTETTCO-53_S99kWI7z-68" source="ZNTETTCO-53_S99kWI7z-54">
          <mxGeometry width="50" height="50" relative="1" as="geometry">
            <mxPoint x="100" y="320" as="sourcePoint" />
            <mxPoint x="167" y="290" as="targetPoint" />
          </mxGeometry>
        </mxCell>
        <mxCell id="ZNTETTCO-53_S99kWI7z-70" value="Tener" style="rhombus;whiteSpace=wrap;html=1;" vertex="1" parent="1">
          <mxGeometry x="260" y="320" width="150" height="80" as="geometry" />
        </mxCell>
        <mxCell id="ZNTETTCO-53_S99kWI7z-71" value="" style="endArrow=none;html=1;rounded=0;fontSize=12;startSize=8;endSize=8;exitX=0.5;exitY=1;exitDx=0;exitDy=0;entryX=0;entryY=0.5;entryDx=0;entryDy=0;edgeStyle=orthogonalEdgeStyle;" edge="1" parent="1" source="ZNTETTCO-53_S99kWI7z-70" target="ZNTETTCO-53_S99kWI7z-38">
          <mxGeometry width="50" height="50" relative="1" as="geometry">
            <mxPoint x="200" y="200" as="sourcePoint" />
            <mxPoint x="290" y="200" as="targetPoint" />
            <Array as="points">
              <mxPoint x="335" y="500" />
              <mxPoint x="430" y="500" />
              <mxPoint x="430" y="520" />
              <mxPoint x="531" y="520" />
            </Array>
          </mxGeometry>
        </mxCell>
        <mxCell id="ZNTETTCO-53_S99kWI7z-72" value="" style="endArrow=none;html=1;rounded=0;fontSize=12;startSize=8;endSize=8;exitX=0.5;exitY=1;exitDx=0;exitDy=0;entryX=0;entryY=0.5;entryDx=0;entryDy=0;edgeStyle=orthogonalEdgeStyle;" edge="1" parent="1" source="ZNTETTCO-53_S99kWI7z-54" target="ZNTETTCO-53_S99kWI7z-70">
          <mxGeometry width="50" height="50" relative="1" as="geometry">
            <mxPoint x="63.5" y="405" as="sourcePoint" />
            <mxPoint x="259.5" y="545" as="targetPoint" />
          </mxGeometry>
        </mxCell>
        <mxCell id="ZNTETTCO-53_S99kWI7z-73" value="&lt;font style=&quot;font-size: 13px;&quot;&gt;(1,1)&lt;/font&gt;" style="text;strokeColor=none;fillColor=none;html=1;align=center;verticalAlign=middle;whiteSpace=wrap;rounded=0;fontSize=16;" vertex="1" parent="1">
          <mxGeometry x="330" y="430" width="60" height="30" as="geometry" />
        </mxCell>
        <mxCell id="ZNTETTCO-53_S99kWI7z-74" value="&lt;font style=&quot;font-size: 13px;&quot;&gt;(0,N)&lt;/font&gt;" style="text;strokeColor=none;fillColor=none;html=1;align=center;verticalAlign=middle;whiteSpace=wrap;rounded=0;fontSize=16;" vertex="1" parent="1">
          <mxGeometry x="170" y="330" width="60" height="30" as="geometry" />
        </mxCell>
        <mxCell id="ZNTETTCO-53_S99kWI7z-75" value="&lt;font size=&quot;1&quot; style=&quot;&quot;&gt;&lt;b style=&quot;font-size: 14px;&quot;&gt;1:N&lt;/b&gt;&lt;/font&gt;" style="text;strokeColor=none;fillColor=none;html=1;align=center;verticalAlign=middle;whiteSpace=wrap;rounded=0;fontSize=16;" vertex="1" parent="1">
          <mxGeometry x="305" y="290" width="60" height="30" as="geometry" />
        </mxCell>
        <mxCell id="ZNTETTCO-53_S99kWI7z-76" value="Tener" style="rhombus;whiteSpace=wrap;html=1;" vertex="1" parent="1">
          <mxGeometry x="240" y="500" width="150" height="80" as="geometry" />
        </mxCell>
        <mxCell id="ZNTETTCO-53_S99kWI7z-77" value="" style="endArrow=none;html=1;rounded=0;fontSize=12;startSize=8;endSize=8;curved=1;entryX=0;entryY=0.5;entryDx=0;entryDy=0;exitX=1;exitY=0.5;exitDx=0;exitDy=0;" edge="1" parent="1" source="ZNTETTCO-53_S99kWI7z-76" target="ZNTETTCO-53_S99kWI7z-38">
          <mxGeometry width="50" height="50" relative="1" as="geometry">
            <mxPoint x="648" y="580" as="sourcePoint" />
            <mxPoint x="703" y="616" as="targetPoint" />
          </mxGeometry>
        </mxCell>
        <mxCell id="ZNTETTCO-53_S99kWI7z-78" value="&lt;font style=&quot;font-size: 11px;&quot;&gt;Valoracion_alojamiento&lt;/font&gt;" style="rounded=1;whiteSpace=wrap;html=1;" vertex="1" parent="1">
          <mxGeometry x="60" y="510" width="120" height="60" as="geometry" />
        </mxCell>
        <mxCell id="ZNTETTCO-53_S99kWI7z-79" value="txt_mensaje" style="ellipse;whiteSpace=wrap;html=1;" vertex="1" parent="1">
          <mxGeometry x="70" y="410" width="130" height="60" as="geometry" />
        </mxCell>
        <mxCell id="ZNTETTCO-53_S99kWI7z-80" value="" style="endArrow=none;html=1;rounded=0;fontSize=12;startSize=8;endSize=8;curved=1;exitX=0.75;exitY=0;exitDx=0;exitDy=0;" edge="1" parent="1" source="ZNTETTCO-53_S99kWI7z-78" target="ZNTETTCO-53_S99kWI7z-79">
          <mxGeometry width="50" height="50" relative="1" as="geometry">
            <mxPoint x="91.8694195139833" y="549.01" as="sourcePoint" />
            <mxPoint x="-460" y="970" as="targetPoint" />
          </mxGeometry>
        </mxCell>
        <mxCell id="ZNTETTCO-53_S99kWI7z-81" value="txt_asunto" style="ellipse;whiteSpace=wrap;html=1;" vertex="1" parent="1">
          <mxGeometry x="-70" y="410" width="130" height="60" as="geometry" />
        </mxCell>
        <mxCell id="ZNTETTCO-53_S99kWI7z-82" value="" style="endArrow=none;html=1;rounded=0;fontSize=12;startSize=8;endSize=8;curved=1;exitX=0.25;exitY=0;exitDx=0;exitDy=0;" edge="1" parent="1" source="ZNTETTCO-53_S99kWI7z-78" target="ZNTETTCO-53_S99kWI7z-81">
          <mxGeometry width="50" height="50" relative="1" as="geometry">
            <mxPoint x="150" y="520" as="sourcePoint" />
            <mxPoint x="147" y="480" as="targetPoint" />
          </mxGeometry>
        </mxCell>
        <mxCell id="ZNTETTCO-53_S99kWI7z-83" value="puntuacion" style="ellipse;whiteSpace=wrap;html=1;" vertex="1" parent="1">
          <mxGeometry x="-80" y="600" width="150" height="60" as="geometry" />
        </mxCell>
        <mxCell id="ZNTETTCO-53_S99kWI7z-84" value="" style="endArrow=none;html=1;rounded=0;fontSize=12;startSize=8;endSize=8;curved=1;exitX=0.183;exitY=0.967;exitDx=0;exitDy=0;exitPerimeter=0;" edge="1" parent="1" source="ZNTETTCO-53_S99kWI7z-78" target="ZNTETTCO-53_S99kWI7z-83">
          <mxGeometry width="50" height="50" relative="1" as="geometry">
            <mxPoint x="80" y="670" as="sourcePoint" />
            <mxPoint x="147" y="640" as="targetPoint" />
          </mxGeometry>
        </mxCell>
        <mxCell id="ZNTETTCO-53_S99kWI7z-85" value="" style="endArrow=none;html=1;rounded=0;fontSize=12;startSize=8;endSize=8;curved=1;entryX=0;entryY=0.5;entryDx=0;entryDy=0;exitX=1;exitY=0.5;exitDx=0;exitDy=0;" edge="1" parent="1" source="ZNTETTCO-53_S99kWI7z-78" target="ZNTETTCO-53_S99kWI7z-76">
          <mxGeometry width="50" height="50" relative="1" as="geometry">
            <mxPoint x="390" y="550" as="sourcePoint" />
            <mxPoint x="230" y="540" as="targetPoint" />
          </mxGeometry>
        </mxCell>
        <mxCell id="ZNTETTCO-53_S99kWI7z-86" value="&lt;font style=&quot;font-size: 13px;&quot;&gt;(0,N)&lt;/font&gt;" style="text;strokeColor=none;fillColor=none;html=1;align=center;verticalAlign=middle;whiteSpace=wrap;rounded=0;fontSize=16;" vertex="1" parent="1">
          <mxGeometry x="180" y="540" width="60" height="30" as="geometry" />
        </mxCell>
        <mxCell id="ZNTETTCO-53_S99kWI7z-87" value="&lt;font style=&quot;font-size: 13px;&quot;&gt;(1,1)&lt;/font&gt;" style="text;strokeColor=none;fillColor=none;html=1;align=center;verticalAlign=middle;whiteSpace=wrap;rounded=0;fontSize=16;" vertex="1" parent="1">
          <mxGeometry x="410" y="540" width="60" height="30" as="geometry" />
        </mxCell>
        <mxCell id="ZNTETTCO-53_S99kWI7z-88" value="&lt;font size=&quot;1&quot; style=&quot;&quot;&gt;&lt;b style=&quot;font-size: 14px;&quot;&gt;1:N&lt;/b&gt;&lt;/font&gt;" style="text;strokeColor=none;fillColor=none;html=1;align=center;verticalAlign=middle;whiteSpace=wrap;rounded=0;fontSize=16;" vertex="1" parent="1">
          <mxGeometry x="285" y="580" width="60" height="30" as="geometry" />
        </mxCell>
        <mxCell id="ZNTETTCO-53_S99kWI7z-90" value="" style="endArrow=none;html=1;rounded=0;fontSize=12;startSize=8;endSize=8;exitX=1;exitY=0.25;exitDx=0;exitDy=0;entryX=0;entryY=0.5;entryDx=0;entryDy=0;edgeStyle=orthogonalEdgeStyle;" edge="1" parent="1" source="ZNTETTCO-53_S99kWI7z-91" target="ZNTETTCO-53_S99kWI7z-78">
          <mxGeometry width="50" height="50" relative="1" as="geometry">
            <mxPoint x="170" y="429.5" as="sourcePoint" />
            <mxPoint x="112" y="520.5" as="targetPoint" />
            <Array as="points">
              <mxPoint x="-110" y="-30" />
              <mxPoint x="-110" y="540" />
            </Array>
          </mxGeometry>
        </mxCell>
        <mxCell id="ZNTETTCO-53_S99kWI7z-92" value="" style="endArrow=none;html=1;rounded=0;fontSize=12;startSize=8;endSize=8;exitX=1;exitY=0.25;exitDx=0;exitDy=0;entryX=0;entryY=0.5;entryDx=0;entryDy=0;edgeStyle=orthogonalEdgeStyle;" edge="1" parent="1" source="ZNTETTCO-53_S99kWI7z-12" target="ZNTETTCO-53_S99kWI7z-91">
          <mxGeometry width="50" height="50" relative="1" as="geometry">
            <mxPoint x="660" y="175" as="sourcePoint" />
            <mxPoint x="60" y="540" as="targetPoint" />
            <Array as="points">
              <mxPoint x="670" y="175" />
              <mxPoint x="670" y="120" />
              <mxPoint x="780" y="120" />
              <mxPoint x="780" y="-30" />
            </Array>
          </mxGeometry>
        </mxCell>
        <mxCell id="ZNTETTCO-53_S99kWI7z-91" value="Escribir" style="rhombus;whiteSpace=wrap;html=1;" vertex="1" parent="1">
          <mxGeometry x="250" y="-70" width="150" height="80" as="geometry" />
        </mxCell>
        <mxCell id="ZNTETTCO-53_S99kWI7z-93" value="&lt;font style=&quot;font-size: 13px;&quot;&gt;(1,1)&lt;/font&gt;" style="text;strokeColor=none;fillColor=none;html=1;align=center;verticalAlign=middle;whiteSpace=wrap;rounded=0;fontSize=16;" vertex="1" parent="1">
          <mxGeometry x="465" y="-60" width="60" height="30" as="geometry" />
        </mxCell>
        <mxCell id="ZNTETTCO-53_S99kWI7z-94" value="&lt;font style=&quot;font-size: 13px;&quot;&gt;(0,N)&lt;/font&gt;" style="text;strokeColor=none;fillColor=none;html=1;align=center;verticalAlign=middle;whiteSpace=wrap;rounded=0;fontSize=16;" vertex="1" parent="1">
          <mxGeometry x="110" y="-60" width="60" height="30" as="geometry" />
        </mxCell>
        <mxCell id="ZNTETTCO-53_S99kWI7z-95" value="&lt;font size=&quot;1&quot; style=&quot;&quot;&gt;&lt;b style=&quot;font-size: 14px;&quot;&gt;1:N&lt;/b&gt;&lt;/font&gt;" style="text;strokeColor=none;fillColor=none;html=1;align=center;verticalAlign=middle;whiteSpace=wrap;rounded=0;fontSize=16;" vertex="1" parent="1">
          <mxGeometry x="295" y="-110" width="60" height="30" as="geometry" />
        </mxCell>
        <mxCell id="ZNTETTCO-53_S99kWI7z-96" value="&lt;font style=&quot;font-size: 11px;&quot;&gt;Ubicacion_alojamiento&lt;/font&gt;" style="rounded=1;whiteSpace=wrap;html=1;" vertex="1" parent="1">
          <mxGeometry x="60" y="790" width="120" height="60" as="geometry" />
        </mxCell>
        <mxCell id="ZNTETTCO-53_S99kWI7z-97" value="provincia" style="ellipse;whiteSpace=wrap;html=1;" vertex="1" parent="1">
          <mxGeometry x="130" y="670" width="130" height="60" as="geometry" />
        </mxCell>
        <mxCell id="ZNTETTCO-53_S99kWI7z-98" value="ciudad" style="ellipse;whiteSpace=wrap;html=1;" vertex="1" parent="1">
          <mxGeometry x="20" y="680" width="100" height="60" as="geometry" />
        </mxCell>
        <mxCell id="ZNTETTCO-53_S99kWI7z-99" value="codigo_postal" style="ellipse;whiteSpace=wrap;html=1;" vertex="1" parent="1">
          <mxGeometry x="-90" y="680" width="100" height="60" as="geometry" />
        </mxCell>
        <mxCell id="ZNTETTCO-53_S99kWI7z-100" value="latitud" style="ellipse;whiteSpace=wrap;html=1;" vertex="1" parent="1">
          <mxGeometry x="190" y="890" width="100" height="60" as="geometry" />
        </mxCell>
        <mxCell id="ZNTETTCO-53_S99kWI7z-101" value="longitud" style="ellipse;whiteSpace=wrap;html=1;" vertex="1" parent="1">
          <mxGeometry x="70" y="900" width="100" height="60" as="geometry" />
        </mxCell>
        <mxCell id="ZNTETTCO-53_S99kWI7z-102" value="linea_direccion" style="ellipse;whiteSpace=wrap;html=1;" vertex="1" parent="1">
          <mxGeometry x="-60" y="890" width="100" height="60" as="geometry" />
        </mxCell>
        <mxCell id="ZNTETTCO-53_S99kWI7z-103" value="" style="endArrow=none;html=1;rounded=0;fontSize=12;startSize=8;endSize=8;curved=1;exitX=0.392;exitY=1.05;exitDx=0;exitDy=0;exitPerimeter=0;entryX=0.75;entryY=0;entryDx=0;entryDy=0;" edge="1" parent="1" source="ZNTETTCO-53_S99kWI7z-97" target="ZNTETTCO-53_S99kWI7z-96">
          <mxGeometry width="50" height="50" relative="1" as="geometry">
            <mxPoint x="247" y="700" as="sourcePoint" />
            <mxPoint x="143" y="803" as="targetPoint" />
          </mxGeometry>
        </mxCell>
        <mxCell id="ZNTETTCO-53_S99kWI7z-104" value="" style="endArrow=none;html=1;rounded=0;fontSize=12;startSize=8;endSize=8;curved=1;exitX=0.5;exitY=1;exitDx=0;exitDy=0;entryX=0.5;entryY=0;entryDx=0;entryDy=0;" edge="1" parent="1" source="ZNTETTCO-53_S99kWI7z-98" target="ZNTETTCO-53_S99kWI7z-96">
          <mxGeometry width="50" height="50" relative="1" as="geometry">
            <mxPoint x="191" y="743" as="sourcePoint" />
            <mxPoint x="160" y="800" as="targetPoint" />
          </mxGeometry>
        </mxCell>
        <mxCell id="ZNTETTCO-53_S99kWI7z-105" value="" style="endArrow=none;html=1;rounded=0;fontSize=12;startSize=8;endSize=8;curved=1;exitX=0.72;exitY=0.933;exitDx=0;exitDy=0;exitPerimeter=0;" edge="1" parent="1" source="ZNTETTCO-53_S99kWI7z-99" target="ZNTETTCO-53_S99kWI7z-96">
          <mxGeometry width="50" height="50" relative="1" as="geometry">
            <mxPoint x="80" y="750" as="sourcePoint" />
            <mxPoint x="130" y="800" as="targetPoint" />
          </mxGeometry>
        </mxCell>
        <mxCell id="ZNTETTCO-53_S99kWI7z-106" value="" style="endArrow=none;html=1;rounded=0;fontSize=12;startSize=8;endSize=8;curved=1;exitX=0.5;exitY=0;exitDx=0;exitDy=0;entryX=0.25;entryY=1;entryDx=0;entryDy=0;" edge="1" parent="1" source="ZNTETTCO-53_S99kWI7z-102" target="ZNTETTCO-53_S99kWI7z-96">
          <mxGeometry width="50" height="50" relative="1" as="geometry">
            <mxPoint x="-8" y="746" as="sourcePoint" />
            <mxPoint x="81" y="800" as="targetPoint" />
          </mxGeometry>
        </mxCell>
        <mxCell id="ZNTETTCO-53_S99kWI7z-107" value="" style="endArrow=none;html=1;rounded=0;fontSize=12;startSize=8;endSize=8;curved=1;exitX=0.5;exitY=1;exitDx=0;exitDy=0;" edge="1" parent="1" source="ZNTETTCO-53_S99kWI7z-96" target="ZNTETTCO-53_S99kWI7z-101">
          <mxGeometry width="50" height="50" relative="1" as="geometry">
            <mxPoint x="50" y="900" as="sourcePoint" />
            <mxPoint x="100" y="860" as="targetPoint" />
          </mxGeometry>
        </mxCell>
        <mxCell id="ZNTETTCO-53_S99kWI7z-108" value="" style="endArrow=none;html=1;rounded=0;fontSize=12;startSize=8;endSize=8;curved=1;" edge="1" parent="1" source="ZNTETTCO-53_S99kWI7z-100" target="ZNTETTCO-53_S99kWI7z-96">
          <mxGeometry width="50" height="50" relative="1" as="geometry">
            <mxPoint x="60" y="910" as="sourcePoint" />
            <mxPoint x="110" y="870" as="targetPoint" />
          </mxGeometry>
        </mxCell>
        <mxCell id="ZNTETTCO-53_S99kWI7z-109" value="Tener" style="rhombus;whiteSpace=wrap;html=1;" vertex="1" parent="1">
          <mxGeometry x="270" y="780" width="150" height="80" as="geometry" />
        </mxCell>
        <mxCell id="ZNTETTCO-53_S99kWI7z-110" value="" style="endArrow=none;html=1;rounded=0;fontSize=12;startSize=8;endSize=8;curved=1;exitX=0;exitY=0.5;exitDx=0;exitDy=0;entryX=1;entryY=0.5;entryDx=0;entryDy=0;" edge="1" parent="1" source="ZNTETTCO-53_S99kWI7z-109" target="ZNTETTCO-53_S99kWI7z-96">
          <mxGeometry width="50" height="50" relative="1" as="geometry">
            <mxPoint x="449" y="710" as="sourcePoint" />
            <mxPoint x="345" y="813" as="targetPoint" />
          </mxGeometry>
        </mxCell>
        <mxCell id="ZNTETTCO-53_S99kWI7z-111" value="" style="endArrow=none;html=1;rounded=0;fontSize=12;startSize=8;endSize=8;entryX=1;entryY=0.5;entryDx=0;entryDy=0;edgeStyle=orthogonalEdgeStyle;" edge="1" parent="1" source="ZNTETTCO-53_S99kWI7z-38" target="ZNTETTCO-53_S99kWI7z-109">
          <mxGeometry width="50" height="50" relative="1" as="geometry">
            <mxPoint x="571" y="580" as="sourcePoint" />
            <mxPoint x="467" y="683" as="targetPoint" />
            <Array as="points">
              <mxPoint x="570" y="680" />
              <mxPoint x="501" y="680" />
              <mxPoint x="501" y="780" />
              <mxPoint x="440" y="780" />
              <mxPoint x="440" y="820" />
            </Array>
          </mxGeometry>
        </mxCell>
        <mxCell id="ZNTETTCO-53_S99kWI7z-112" value="&lt;font style=&quot;font-size: 13px;&quot;&gt;(1,1)&lt;/font&gt;" style="text;strokeColor=none;fillColor=none;html=1;align=center;verticalAlign=middle;whiteSpace=wrap;rounded=0;fontSize=16;" vertex="1" parent="1">
          <mxGeometry x="440" y="750" width="60" height="30" as="geometry" />
        </mxCell>
        <mxCell id="ZNTETTCO-53_S99kWI7z-113" value="&lt;font style=&quot;font-size: 13px;&quot;&gt;(1,1)&lt;/font&gt;" style="text;strokeColor=none;fillColor=none;html=1;align=center;verticalAlign=middle;whiteSpace=wrap;rounded=0;fontSize=16;" vertex="1" parent="1">
          <mxGeometry x="200" y="790" width="60" height="30" as="geometry" />
        </mxCell>
        <mxCell id="ZNTETTCO-53_S99kWI7z-114" value="&lt;font size=&quot;1&quot; style=&quot;&quot;&gt;&lt;b style=&quot;font-size: 14px;&quot;&gt;1:1&lt;/b&gt;&lt;/font&gt;" style="text;strokeColor=none;fillColor=none;html=1;align=center;verticalAlign=middle;whiteSpace=wrap;rounded=0;fontSize=16;" vertex="1" parent="1">
          <mxGeometry x="315" y="740" width="60" height="30" as="geometry" />
        </mxCell>
        <mxCell id="ZNTETTCO-53_S99kWI7z-115" value="Tener" style="rhombus;whiteSpace=wrap;html=1;" vertex="1" parent="1">
          <mxGeometry x="516" y="680" width="150" height="80" as="geometry" />
        </mxCell>
        <mxCell id="ZNTETTCO-53_S99kWI7z-116" value="" style="endArrow=none;html=1;rounded=0;fontSize=12;startSize=8;endSize=8;curved=1;exitX=0.5;exitY=1;exitDx=0;exitDy=0;entryX=0.5;entryY=0;entryDx=0;entryDy=0;" edge="1" parent="1" source="ZNTETTCO-53_S99kWI7z-38" target="ZNTETTCO-53_S99kWI7z-115">
          <mxGeometry width="50" height="50" relative="1" as="geometry">
            <mxPoint x="571" y="580" as="sourcePoint" />
            <mxPoint x="467" y="683" as="targetPoint" />
          </mxGeometry>
        </mxCell>
        <mxCell id="ZNTETTCO-53_S99kWI7z-118" value="&lt;font style=&quot;font-size: 11px;&quot;&gt;Imagen_alojamiento&lt;/font&gt;" style="rounded=1;whiteSpace=wrap;html=1;" vertex="1" parent="1">
          <mxGeometry x="531" y="800" width="120" height="60" as="geometry" />
        </mxCell>
        <mxCell id="ZNTETTCO-53_S99kWI7z-119" value="" style="endArrow=none;html=1;rounded=0;fontSize=12;startSize=8;endSize=8;curved=1;exitX=0.5;exitY=1;exitDx=0;exitDy=0;entryX=0.5;entryY=0;entryDx=0;entryDy=0;" edge="1" parent="1" source="ZNTETTCO-53_S99kWI7z-115" target="ZNTETTCO-53_S99kWI7z-118">
          <mxGeometry width="50" height="50" relative="1" as="geometry">
            <mxPoint x="601" y="580" as="sourcePoint" />
            <mxPoint x="601" y="690" as="targetPoint" />
          </mxGeometry>
        </mxCell>
        <mxCell id="ZNTETTCO-53_S99kWI7z-122" value="datos_imagen" style="ellipse;whiteSpace=wrap;html=1;" vertex="1" parent="1">
          <mxGeometry x="591" y="900" width="100" height="60" as="geometry" />
        </mxCell>
        <mxCell id="ZNTETTCO-53_S99kWI7z-123" value="" style="endArrow=none;html=1;rounded=0;fontSize=12;startSize=8;endSize=8;curved=1;exitX=0.75;exitY=1;exitDx=0;exitDy=0;" edge="1" parent="1" target="ZNTETTCO-53_S99kWI7z-122" source="ZNTETTCO-53_S99kWI7z-118">
          <mxGeometry width="50" height="50" relative="1" as="geometry">
            <mxPoint x="587.090909090909" y="850" as="sourcePoint" />
            <mxPoint x="570" y="860" as="targetPoint" />
          </mxGeometry>
        </mxCell>
        <mxCell id="ZNTETTCO-53_S99kWI7z-124" value="num_orden" style="ellipse;whiteSpace=wrap;html=1;" vertex="1" parent="1">
          <mxGeometry x="460" y="900" width="100" height="60" as="geometry" />
        </mxCell>
        <mxCell id="ZNTETTCO-53_S99kWI7z-125" value="" style="endArrow=none;html=1;rounded=0;fontSize=12;startSize=8;endSize=8;curved=1;exitX=0.25;exitY=1;exitDx=0;exitDy=0;" edge="1" parent="1" target="ZNTETTCO-53_S99kWI7z-124" source="ZNTETTCO-53_S99kWI7z-118">
          <mxGeometry width="50" height="50" relative="1" as="geometry">
            <mxPoint x="460" y="860" as="sourcePoint" />
            <mxPoint x="439" y="860" as="targetPoint" />
          </mxGeometry>
        </mxCell>
        <mxCell id="ZNTETTCO-53_S99kWI7z-126" value="&lt;font style=&quot;font-size: 13px;&quot;&gt;(1,1)&lt;/font&gt;" style="text;strokeColor=none;fillColor=none;html=1;align=center;verticalAlign=middle;whiteSpace=wrap;rounded=0;fontSize=16;" vertex="1" parent="1">
          <mxGeometry x="585" y="610" width="60" height="30" as="geometry" />
        </mxCell>
        <mxCell id="ZNTETTCO-53_S99kWI7z-127" value="&lt;font style=&quot;font-size: 13px;&quot;&gt;(1,N)&lt;/font&gt;" style="text;strokeColor=none;fillColor=none;html=1;align=center;verticalAlign=middle;whiteSpace=wrap;rounded=0;fontSize=16;" vertex="1" parent="1">
          <mxGeometry x="585" y="760" width="60" height="30" as="geometry" />
        </mxCell>
        <mxCell id="ZNTETTCO-53_S99kWI7z-128" value="&lt;font style=&quot;font-size: 14px;&quot;&gt;&lt;b&gt;1:N&lt;/b&gt;&lt;/font&gt;" style="text;strokeColor=none;fillColor=none;html=1;align=center;verticalAlign=middle;whiteSpace=wrap;rounded=0;fontSize=16;" vertex="1" parent="1">
          <mxGeometry x="660" y="705" width="60" height="30" as="geometry" />
        </mxCell>
        <mxCell id="ZNTETTCO-53_S99kWI7z-132" value="&lt;font style=&quot;font-size: 11px;&quot;&gt;Comodidad_alojamiento&lt;/font&gt;" style="rounded=1;whiteSpace=wrap;html=1;" vertex="1" parent="1">
          <mxGeometry x="940" y="510" width="120" height="60" as="geometry" />
        </mxCell>
        <mxCell id="ZNTETTCO-53_S99kWI7z-133" value="" style="endArrow=none;html=1;rounded=0;fontSize=12;startSize=8;endSize=8;curved=1;exitX=1;exitY=0.5;exitDx=0;exitDy=0;entryX=0;entryY=0.5;entryDx=0;entryDy=0;" edge="1" parent="1" source="ZNTETTCO-53_S99kWI7z-134" target="ZNTETTCO-53_S99kWI7z-132">
          <mxGeometry width="50" height="50" relative="1" as="geometry">
            <mxPoint x="661" y="535" as="sourcePoint" />
            <mxPoint x="712" y="496" as="targetPoint" />
          </mxGeometry>
        </mxCell>
        <mxCell id="ZNTETTCO-53_S99kWI7z-135" value="" style="endArrow=none;html=1;rounded=0;fontSize=12;startSize=8;endSize=8;curved=1;exitX=1;exitY=0.5;exitDx=0;exitDy=0;entryX=0;entryY=0.5;entryDx=0;entryDy=0;" edge="1" parent="1" source="ZNTETTCO-53_S99kWI7z-38" target="ZNTETTCO-53_S99kWI7z-134">
          <mxGeometry width="50" height="50" relative="1" as="geometry">
            <mxPoint x="651" y="540" as="sourcePoint" />
            <mxPoint x="940" y="540" as="targetPoint" />
          </mxGeometry>
        </mxCell>
        <mxCell id="ZNTETTCO-53_S99kWI7z-134" value="Asociar" style="rhombus;whiteSpace=wrap;html=1;" vertex="1" parent="1">
          <mxGeometry x="725" y="500" width="150" height="80" as="geometry" />
        </mxCell>
        <mxCell id="ZNTETTCO-53_S99kWI7z-136" value="&lt;font style=&quot;font-size: 13px;&quot;&gt;(0,N)&lt;/font&gt;" style="text;strokeColor=none;fillColor=none;html=1;align=center;verticalAlign=middle;whiteSpace=wrap;rounded=0;fontSize=16;" vertex="1" parent="1">
          <mxGeometry x="660" y="510" width="60" height="30" as="geometry" />
        </mxCell>
        <mxCell id="ZNTETTCO-53_S99kWI7z-137" value="&lt;font style=&quot;font-size: 13px;&quot;&gt;(0,N)&lt;/font&gt;" style="text;strokeColor=none;fillColor=none;html=1;align=center;verticalAlign=middle;whiteSpace=wrap;rounded=0;fontSize=16;" vertex="1" parent="1">
          <mxGeometry x="875" y="510" width="60" height="30" as="geometry" />
        </mxCell>
        <mxCell id="ZNTETTCO-53_S99kWI7z-138" value="&lt;font style=&quot;font-size: 14px;&quot;&gt;&lt;b&gt;N:M&lt;/b&gt;&lt;/font&gt;" style="text;strokeColor=none;fillColor=none;html=1;align=center;verticalAlign=middle;whiteSpace=wrap;rounded=0;fontSize=16;" vertex="1" parent="1">
          <mxGeometry x="770" y="470" width="60" height="30" as="geometry" />
        </mxCell>
        <mxCell id="ZNTETTCO-53_S99kWI7z-139" value="txt_descripcion" style="ellipse;whiteSpace=wrap;html=1;" vertex="1" parent="1">
          <mxGeometry x="1030" y="390" width="130" height="60" as="geometry" />
        </mxCell>
        <mxCell id="ZNTETTCO-53_S99kWI7z-140" value="txt_nombre" style="ellipse;whiteSpace=wrap;html=1;" vertex="1" parent="1">
          <mxGeometry x="920" y="400" width="100" height="60" as="geometry" />
        </mxCell>
        <mxCell id="ZNTETTCO-53_S99kWI7z-141" value="&lt;u style=&quot;font-size: 11px;&quot;&gt;codigo_comodidad&lt;/u&gt;" style="ellipse;whiteSpace=wrap;html=1;" vertex="1" parent="1">
          <mxGeometry x="810" y="400" width="100" height="60" as="geometry" />
        </mxCell>
        <mxCell id="ZNTETTCO-53_S99kWI7z-142" value="" style="endArrow=none;html=1;rounded=0;fontSize=12;startSize=8;endSize=8;curved=1;exitX=0.392;exitY=1.05;exitDx=0;exitDy=0;exitPerimeter=0;entryX=0.75;entryY=0;entryDx=0;entryDy=0;" edge="1" parent="1" source="ZNTETTCO-53_S99kWI7z-139">
          <mxGeometry width="50" height="50" relative="1" as="geometry">
            <mxPoint x="1147" y="420" as="sourcePoint" />
            <mxPoint x="1050" y="510" as="targetPoint" />
          </mxGeometry>
        </mxCell>
        <mxCell id="ZNTETTCO-53_S99kWI7z-143" value="" style="endArrow=none;html=1;rounded=0;fontSize=12;startSize=8;endSize=8;curved=1;exitX=0.5;exitY=1;exitDx=0;exitDy=0;entryX=0.5;entryY=0;entryDx=0;entryDy=0;" edge="1" parent="1" source="ZNTETTCO-53_S99kWI7z-140">
          <mxGeometry width="50" height="50" relative="1" as="geometry">
            <mxPoint x="1091" y="463" as="sourcePoint" />
            <mxPoint x="1020" y="510" as="targetPoint" />
          </mxGeometry>
        </mxCell>
        <mxCell id="ZNTETTCO-53_S99kWI7z-144" value="" style="endArrow=none;html=1;rounded=0;fontSize=12;startSize=8;endSize=8;curved=1;exitX=0.72;exitY=0.933;exitDx=0;exitDy=0;exitPerimeter=0;" edge="1" parent="1" source="ZNTETTCO-53_S99kWI7z-141">
          <mxGeometry width="50" height="50" relative="1" as="geometry">
            <mxPoint x="980" y="470" as="sourcePoint" />
            <mxPoint x="971" y="510" as="targetPoint" />
          </mxGeometry>
        </mxCell>
        <mxCell id="ZNTETTCO-53_S99kWI7z-146" value="&lt;font style=&quot;font-size: 11px;&quot;&gt;Tipo_comodidad&lt;/font&gt;" style="rounded=1;whiteSpace=wrap;html=1;" vertex="1" parent="1">
          <mxGeometry x="941" y="800" width="120" height="60" as="geometry" />
        </mxCell>
        <mxCell id="ZNTETTCO-53_S99kWI7z-147" value="txt_nombre" style="ellipse;whiteSpace=wrap;html=1;" vertex="1" parent="1">
          <mxGeometry x="1001" y="900" width="100" height="60" as="geometry" />
        </mxCell>
        <mxCell id="ZNTETTCO-53_S99kWI7z-148" value="" style="endArrow=none;html=1;rounded=0;fontSize=12;startSize=8;endSize=8;curved=1;exitX=0.75;exitY=1;exitDx=0;exitDy=0;" edge="1" parent="1" source="ZNTETTCO-53_S99kWI7z-146" target="ZNTETTCO-53_S99kWI7z-147">
          <mxGeometry width="50" height="50" relative="1" as="geometry">
            <mxPoint x="997.090909090909" y="850" as="sourcePoint" />
            <mxPoint x="980" y="860" as="targetPoint" />
          </mxGeometry>
        </mxCell>
        <mxCell id="ZNTETTCO-53_S99kWI7z-149" value="&lt;u&gt;codigo_tipo_comodidad&lt;/u&gt;" style="ellipse;whiteSpace=wrap;html=1;" vertex="1" parent="1">
          <mxGeometry x="810" y="900" width="160" height="60" as="geometry" />
        </mxCell>
        <mxCell id="ZNTETTCO-53_S99kWI7z-150" value="" style="endArrow=none;html=1;rounded=0;fontSize=12;startSize=8;endSize=8;curved=1;exitX=0.25;exitY=1;exitDx=0;exitDy=0;" edge="1" parent="1" source="ZNTETTCO-53_S99kWI7z-146" target="ZNTETTCO-53_S99kWI7z-149">
          <mxGeometry width="50" height="50" relative="1" as="geometry">
            <mxPoint x="870" y="860" as="sourcePoint" />
            <mxPoint x="849" y="860" as="targetPoint" />
          </mxGeometry>
        </mxCell>
        <mxCell id="ZNTETTCO-53_S99kWI7z-151" value="Asociar" style="rhombus;whiteSpace=wrap;html=1;" vertex="1" parent="1">
          <mxGeometry x="925" y="640" width="150" height="80" as="geometry" />
        </mxCell>
        <mxCell id="ZNTETTCO-53_S99kWI7z-152" value="" style="endArrow=none;html=1;rounded=0;fontSize=12;startSize=8;endSize=8;curved=1;entryX=0.5;entryY=0;entryDx=0;entryDy=0;" edge="1" parent="1" source="ZNTETTCO-53_S99kWI7z-132" target="ZNTETTCO-53_S99kWI7z-151">
          <mxGeometry width="50" height="50" relative="1" as="geometry">
            <mxPoint x="1091" y="463" as="sourcePoint" />
            <mxPoint x="1060" y="520" as="targetPoint" />
          </mxGeometry>
        </mxCell>
        <mxCell id="ZNTETTCO-53_S99kWI7z-153" value="" style="endArrow=none;html=1;rounded=0;fontSize=12;startSize=8;endSize=8;curved=1;" edge="1" parent="1" source="ZNTETTCO-53_S99kWI7z-151" target="ZNTETTCO-53_S99kWI7z-146">
          <mxGeometry width="50" height="50" relative="1" as="geometry">
            <mxPoint x="999.66" y="730" as="sourcePoint" />
            <mxPoint x="999.66" y="800" as="targetPoint" />
          </mxGeometry>
        </mxCell>
        <mxCell id="ZNTETTCO-53_S99kWI7z-154" value="&lt;font style=&quot;font-size: 13px;&quot;&gt;(0,N)&lt;/font&gt;" style="text;strokeColor=none;fillColor=none;html=1;align=center;verticalAlign=middle;whiteSpace=wrap;rounded=0;fontSize=16;" vertex="1" parent="1">
          <mxGeometry x="1000" y="590" width="60" height="30" as="geometry" />
        </mxCell>
        <mxCell id="ZNTETTCO-53_S99kWI7z-155" value="&lt;font style=&quot;font-size: 13px;&quot;&gt;(1,1)&lt;/font&gt;" style="text;strokeColor=none;fillColor=none;html=1;align=center;verticalAlign=middle;whiteSpace=wrap;rounded=0;fontSize=16;" vertex="1" parent="1">
          <mxGeometry x="1001" y="750" width="60" height="30" as="geometry" />
        </mxCell>
        <mxCell id="ZNTETTCO-53_S99kWI7z-156" value="&lt;font style=&quot;font-size: 14px;&quot;&gt;&lt;b&gt;1:N&lt;/b&gt;&lt;/font&gt;" style="text;strokeColor=none;fillColor=none;html=1;align=center;verticalAlign=middle;whiteSpace=wrap;rounded=0;fontSize=16;" vertex="1" parent="1">
          <mxGeometry x="1070" y="665" width="60" height="30" as="geometry" />
        </mxCell>
      </root>
    </mxGraphModel>
  </diagram>
</mxfile>
